<svg id="Capa_1" enable-background="new 0 0 512 512" height="512" viewBox="0 0 512 512" width="512" xmlns="http://www.w3.org/2000/svg"><g><g><path d="m394.36 145.86c-1.19 7.142-43.011 258.053-44.18 265.07-2.41 14.47-14.93 25.07-29.59 25.07-15.708 0-113.437 0-129.18 0-14.66 0-27.18-10.6-29.59-25.07-2.777-16.687-42.673-256.029-44.18-265.07-6.09-36.57 22.11-69.86 59.19-69.86h158.34c36.891 0 65.283 33.081 59.19 69.86z" fill="#ff7b79"/></g><g><path d="m446 10c0-5.523-4.478-10-10-10h-360c-5.522 0-10 4.477-10 10s4.478 10 10 10h170v46h-69.17c-43.197 0-76.167 38.793-69.055 81.504l44.181 265.069c3.227 19.369 19.819 33.427 39.454 33.427h54.59v56c0 5.522 4.478 10 10 10s10-4.478 10-10v-56h54.59c19.635 0 36.228-14.058 39.454-33.426l44.182-265.08c7.082-42.718-25.773-81.494-69.056-81.494h-69.17v-46h170c5.522 0 10-4.477 10-10zm-61.798 116h-128.202c-5.522 0-10 4.477-10 10s4.478 10 10 10h128.199l-11.667 70h-56.532c-5.522 0-10 4.477-10 10s4.478 10 10 10h53.198l-16.667 100h-66.531c-5.522 0-10 4.477-10 10s4.478 10 10 10h63.197l-8.882 53.287c-1.613 9.684-9.909 16.713-19.725 16.713h-129.18c-9.816 0-18.112-7.029-19.726-16.713l-3.88-23.287h58.196c5.522 0 10-4.477 10-10s-4.478-10-10-10h-61.53l-11.666-70h118.196c5.522 0 10-4.477 10-10s-4.478-10-10-10h-121.529l-11.666-70h88.195c5.522 0 10-4.477 10-10s-4.478-10-10-10h-91.529l-6.967-41.783c-5.068-30.436 18.398-58.217 49.326-58.217h158.34c24.586 0 44.501 17.594 49.032 40z"/><circle cx="316" cy="286" r="10"/></g></g></svg>